<svg xmlns="http://www.w3.org/2000/svg" viewBox="0 0 1500 1000">
  <rect width="1500" height="1000" fill="#DE2910"/>
  <g transform="translate(250,167)" fill="#FFDE00">
    <polygon points="0,-80 18.5,-24.7 77.1,-24.7 29.3,9.4 47.8,64.7 0,30.6 -47.8,64.7 -29.3,9.4 -77.1,-24.7 -18.5,-24.7"/>
  </g>
  <g transform="translate(450,67)" fill="#FFDE00">
    <polygon points="0,-27 6.2,-8.3 25.7,-8.3 9.8,3.2 16,21.6 0,10.2 -16,21.6 -9.8,3.2 -25.7,-8.3 -6.2,-8.3"/>
  </g>
  <g transform="translate(500,150)" fill="#FFDE00">
    <polygon points="0,-27 6.2,-8.3 25.7,-8.3 9.8,3.2 16,21.6 0,10.2 -16,21.6 -9.8,3.2 -25.7,-8.3 -6.2,-8.3"/>
  </g>
  <g transform="translate(500,267)" fill="#FFDE00">
    <polygon points="0,-27 6.2,-8.3 25.7,-8.3 9.8,3.2 16,21.6 0,10.2 -16,21.6 -9.8,3.2 -25.7,-8.3 -6.2,-8.3"/>
  </g>
  <g transform="translate(450,333)" fill="#FFDE00">
    <polygon points="0,-27 6.2,-8.3 25.7,-8.3 9.8,3.2 16,21.6 0,10.2 -16,21.6 -9.8,3.2 -25.7,-8.3 -6.2,-8.3"/>
  </g>
</svg>
